<mxfile host="app.diagrams.net" modified="2023-05-17T05:25:14.970Z" agent="Mozilla/5.0 (Windows NT 10.0; Win64; x64) AppleWebKit/537.36 (KHTML, like Gecko) Chrome/112.0.0.0 Safari/537.36" etag="9L10qlzqI-c27LmHRofG" version="21.3.2" type="github">
  <diagram name="Page-1" id="tZw0NWnKlOoby9iMN52e">
    <mxGraphModel dx="2496" dy="1091" grid="1" gridSize="10" guides="1" tooltips="1" connect="1" arrows="1" fold="1" page="1" pageScale="1" pageWidth="850" pageHeight="1100" math="0" shadow="0">
      <root>
        <mxCell id="0" />
        <mxCell id="1" parent="0" />
        <mxCell id="lrLpBOUYX-XyNPeP_q0j-2" value="" style="shape=image;verticalLabelPosition=bottom;verticalAlign=top;imageAspect=0;aspect=fixed;image=https://digitalmarketplace-sapcpprd.s3.eu-central-1.amazonaws.com/qvsenpZtmGjXj0jdKDOvDijJo_ATP0WxIH7PPGvOHFbNaWEftGTZvOsPmYBDljwg.svg" vertex="1" parent="1">
          <mxGeometry x="180" y="480" width="56" height="56" as="geometry" />
        </mxCell>
        <mxCell id="lrLpBOUYX-XyNPeP_q0j-3" value="" style="shape=image;verticalLabelPosition=bottom;verticalAlign=top;imageAspect=0;aspect=fixed;image=https://digitalmarketplace-sapcpprd.s3.eu-central-1.amazonaws.com/k6a4QEYfYDv5JIBBm3J6GckgvlMRrvaK7VzzYix4n_HSmgShxEoierKhMlRY1V6c.svg" vertex="1" parent="1">
          <mxGeometry x="400" y="530" width="56" height="56" as="geometry" />
        </mxCell>
        <mxCell id="lrLpBOUYX-XyNPeP_q0j-4" value="" style="shape=image;verticalLabelPosition=bottom;verticalAlign=top;imageAspect=0;aspect=fixed;image=https://digitalmarketplace-sapcpprd.s3.eu-central-1.amazonaws.com/qZ8BMfCUCVZcNZ7NWQ_b6IVE-Jny2YkhmuZmU47DfDkDBEXVB-oXw5hyqFn68QGI.svg" vertex="1" parent="1">
          <mxGeometry x="400" y="530" width="56" height="56" as="geometry" />
        </mxCell>
        <mxCell id="lrLpBOUYX-XyNPeP_q0j-7" value="" style="shape=image;verticalLabelPosition=bottom;verticalAlign=top;imageAspect=0;aspect=fixed;image=data:image/svg+xml,PHN2ZyB4bWxucz0iaHR0cDovL3d3dy53My5vcmcvMjAwMC9zdmciIGlkPSJwbGFjZWhvbGRlciIgdmlld0JveD0iNC4wMDAwMDE5MDczNDg2MzMgMy45OTk5OTkwNDYzMjU2ODM2IDQ4IDQ3Ljk5OTk5NjE4NTMwMjczNCIgd2lkdGg9IjQ4IiBoZWlnaHQ9IjQ3Ljk5OTk5NjE4NTMwMjczNCI+PGRlZnM+PHN0eWxlPi5jbHMtMXtmaWxsOiMwNzRkOTI7fS5jbHMtMntmaWxsOiMwNTNiNzA7fS5jbHMtM3tmaWxsOiMwYTZlZDE7fTwvc3R5bGU+PC9kZWZzPjx0aXRsZT5wbGFjZWhvbGRlcl9jaXJjbGU8L3RpdGxlPjxwYXRoIGNsYXNzPSJjbHMtMSIgZD0iTTI4LDZBMjIsMjIsMCwxLDEsNiwyOCwyMi4wMjUsMjIuMDI1LDAsMCwxLDI4LDZtMC0yQTI0LDI0LDAsMSwwLDUyLDI4LDI0LDI0LDAsMCwwLDI4LDRaIi8+PHBhdGggY2xhc3M9ImNscy0yIiBkPSJNMzguMjY2LDIzLjk4NWEyLjM0NywyLjM0NywwLDAsMC0uOTk1LS4yNDgsMS43ODEsMS43ODEsMCwwLDAtMS44MzksMS44MjgsMi4yMTIsMi4yMTIsMCwwLDAsLjQ4NSwxLjQyMiwxLjYzMywxLjYzMywwLDAsMCwxLjM1NC42MSwxLjY3NiwxLjY3NiwwLDAsMCwuNzkyLS4yLDQuMDQzLDQuMDQzLDAsMCwwLC43MTUtLjQ4Myw1LjM2NSw1LjM2NSwwLDAsMSwuNjY0LS40ODIsMS4yMzEsMS4yMzEsMCwwLDEsLjYzOS0uMkEuODEuODEsMCwwLDEsNDEsMjcuMTRWMzRhMS41MzgsMS41MzgsMCwwLDEtLjMxMiwxLjA4MywxLjU4MywxLjU4MywwLDAsMS0xLjE2OS4zMzlxLTEuNTg0LDAtMi4zNzYuMDI2dC0xLjE0OS4wMjVoLS40NmExLjgxLDEuODEsMCwwLDAsLjMyNy4zNDlBMy4xLDMuMSwwLDAsMSwzNi45ODUsMzguMWEyLjc0MSwyLjc0MSwwLDAsMS0uODk0LDIuMDMyQTIuODkyLDIuODkyLDAsMCwxLDM0LjAyMiw0MWEzLjAzMSwzLjAzMSwwLDAsMS0yLjItLjgzOCwyLjc0NiwyLjc0NiwwLDAsMS0uODY5LTIuMDU3LDIuNjQsMi42NCwwLDAsMSwuMjgxLTEuMjQ1LDYuMjQ5LDYuMjQ5LDAsMCwxLC44MjEtMS4wNjcsMS4yNTgsMS4yNTgsMCwwLDAsLjI1Ny0uMzc0SDI4LjE3OWEuNzU2Ljc1NiwwLDAsMS0uNTg4LS4yNTQsMS4wOTEsMS4wOTEsMCwwLDEtLjI4MS0uNTU5VjIxLjQ1MWEuOTczLjk3MywwLDAsMSwuMjMtLjYzNS43ODMuNzgzLDAsMCwxLC42MzktLjI3OWg0LjE4OGExLjAzLDEuMDMsMCwwLDAtLjItLjNsLS40MzUtLjYzNGE0Ljc2Niw0Ljc2NiwwLDAsMS0uNDU5LS44MTMsMi42LDIuNiwwLDAsMS0uMjItLjkwOEEyLjksMi45LDAsMCwxLDM0LDE1YTMuMDA5LDMuMDA5LDAsMCwxLDIuMDUzLjg0MSwyLjUxMSwyLjUxMSwwLDAsMSwuOTEsMi4wNTQsNS4yLDUuMiwwLDAsMS0xLjIxNCwyLjM3Ljg2Ny44NjcsMCwwLDAtLjE2Ni4yNzJoMy45MzRBMS40MzUsMS40MzUsMCwwLDEsNDEsMjEuOTU5djIuMjM1cTAsLjk2NS0uOTE5Ljk2NWEuOTQ0Ljk0NCwwLDAsMS0uNzE1LS4zQTcuMDc0LDcuMDc0LDAsMCwwLDM4LjI2NiwyMy45ODVaTTI4LjE3OSwzNGEuMzE1LjMxNSwwLDAsMCwuMzU3LjM1NWgzLjg4MmEuODU3Ljg1NywwLDAsMSwuOTcxLjk2NiwxLjIxNSwxLjIxNSwwLDAsMS0uMjEuNjc5cS0uMjMuMzMtLjQ4NS42NmMtLjE3MS4yMjEtLjMzMi40NDktLjQ4NS42ODZhMS4zNzIsMS4zNzIsMCwwLDAtLjIzLjc2MiwxLjY4NSwxLjY4NSwwLDAsMCwuNjEzLDEuMzcxLDIuMTc1LDIuMTc1LDAsMCwwLDEuNDMuNTA4LDIuMDQyLDIuMDQyLDAsMCwwLDEuMzI4LS41MDgsMS42ODUsMS42ODUsMCwwLDAsLjYxMy0xLjM3MSwxLjM4LDEuMzgsMCwwLDAtLjIzLS43NjIsNi42Myw2LjYzLDAsMCwwLS41MTEtLjY4NnEtLjI4MS0uMzMtLjUxLS42MzVhMS4yMTgsMS4yMTgsMCwwLDEtLjI1LS43Ljg3NS44NzUsMCwwLDEsLjMwNi0uNzEyLDEuMDg3LDEuMDg3LDAsMCwxLC43MTUtLjI1NGg0LjAzNnEuNTEsMCwuNTEtLjM1NVYyNy4xOTFhLjg3OC44NzgsMCwwLDAtLjM4My4yMjhjLS4xODcuMTUyLS40LjMxNC0uNjM4LjQ4M2E2LjE2MSw2LjE2MSwwLDAsMS0uODE3LjQ4MiwyLjA0NCwyLjA0NCwwLDAsMS0uOTIuMjI5LDIuOTUzLDIuOTUzLDAsMCwxLTEuOTkyLS44MTMsMi4zLDIuMywwLDAsMS0uNjY0LTEuMDE2LDMuODIxLDMuODIxLDAsMCwxLS4yLTEuMjE5LDIuOCwyLjgsMCwwLDEsLjg2OC0yLjAwNiwyLjcxMywyLjcxMywwLDAsMSwxLjk5Mi0uODg5LDIuNjQ5LDIuNjQ5LDAsMCwxLDEuMjc3LjI3OSw0LjExMiw0LjExMiwwLDAsMSwxLjEwNy44MjZjLjI3NC4zMTkuNDI2LjMzOC40MjYuMzM4VjIxLjk1OWEuMy4zLDAsMCwwLS4xNzktLjI1NC43NjYuNzY2LDAsMCwwLS4zODMtLjFIMzUuNDgzYTEuMTYzLDEuMTYzLDAsMCwxLS43MTUtLjIyOC44Ni44NiwwLDAsMS0uMzA2LS43MzcsMS4xMTYsMS4xMTYsMCwwLDEsLjIzLS42MzVjLjE1My0uMjIuMzIzLS40MzkuNTEtLjY2YTYuNTI0LDYuNTI0LDAsMCwwLC41MTEtLjY4NiwxLjM3NSwxLjM3NSwwLDAsMCwuMjMtLjc2MiwxLjY4OCwxLjY4OCwwLDAsMC0uNjEzLTEuMzcxQTIuMDQ0LDIuMDQ0LDAsMCwwLDM0LDE2LjAxNmEyLjA3OSwyLjA3OSwwLDAsMC0xLjQwNS41MDhBMS43MjIsMS43MjIsMCwwLDAsMzIuMDEsMTcuOWExLjUsMS41LDAsMCwwLC4yMy43ODgsNS4zMjEsNS4zMjEsMCwwLDAsLjQ4NS42ODVsLjQ2LjY2MWExLjU3LDEuNTcsMCwwLDEsLjI1NS42MDkuODc4Ljg3OCwwLDAsMS0uMjgxLjczNywxLjA1OCwxLjA1OCwwLDAsMS0uNjg5LjIyOEgyOC41ODdjLS4yNzMsMC0uNDA4LjExOS0uNDA4LjM1NlpNNDEsMzRhMS40NjMsMS40NjMsMCwwLDEtLjMxMiwxLjA4MywxLjQ0OCwxLjQ0OCwwLDAsMS0xLjE2OS4zMzkiLz48cGF0aCBjbGFzcz0iY2xzLTMiIGQ9Ik0zMi45NTUsMjkuNjY1YTEuOCwxLjgsMCwwLDAtMS41NTktLjczNiwyLjM5NCwyLjM5NCwwLDAsMC0xLjE0OC4yMjgsMy4zNDMsMy4zNDMsMCwwLDAtLjYzOS40ODNjLS4yLjE2OS0uNDA5LjMzLS42MTMuNDgycy0uNDM4LjQxOS0uNzA2LjQyMWgtLjk4VjIxLjc0OWExLjgsMS44LDAsMCwwLS4yLS44MTMuNzc3Ljc3NywwLDAsMC0uNzY2LS40MDZIMjMuMjc1Yy0uMjczLDAtLjQwOS4xMzYtLjQwOS40NTdhMS4wMzUsMS4wMzUsMCwwLDAsLjIwNS42MSw0LjksNC45LDAsMCwwLC41MTEuNjA5LDIuODgxLDIuODgxLDAsMCwxLC41MS42ODYsMS43NDcsMS43NDcsMCwwLDEsLjIwNS44MzgsMi40MTQsMi40MTQsMCwwLDEtLjY5LDEuNywyLjE5NSwyLjE5NSwwLDAsMS0xLjY2LjczNiwyLjExNiwyLjExNiwwLDAsMS0xLjYzNS0uNzM2LDIuNDY4LDIuNDY4LDAsMCwxLS42NjQtMS43LDEuNTkzLDEuNTkzLDAsMCwxLC4yMy0uODM4LDcuNDQxLDcuNDQxLDAsMCwxLC40ODUtLjcxMWMuMTcxLS4yMi4zNC0uNDIzLjUxMS0uNjFhLjg1NS44NTUsMCwwLDAsLjI1Ni0uNTg0YzAtLjMtLjE4OC0uNDU3LS41NjItLjQ1N0gxNS45MTlhLjg2Mi44NjIsMCwwLDAtLjY2NC4yNzlBLjk4My45ODMsMCwwLDAsMTUsMjEuNVYzNC40NDhhLjk3Ni45NzYsMCwwLDAsLjI1NS42ODUuODU2Ljg1NiwwLDAsMCwuNjY0LjI4aDQuNmMuMzc0LDAsLjU2MS4xMjkuNTYyLjQwNmEuODQ4Ljg0OCwwLDAsMS0uMjI5LjUxMmwtLjUzOC42MDZhMy41MzYsMy41MzYsMCwwLDAtLjUzNi42ODUsMS42OTEsMS42OTEsMCwwLDAtLjIzLjg4OSwyLjI5MSwyLjI5MSwwLDAsMCwuNzQxLDEuODc5LDIuNTkzLDIuNTkzLDAsMCwwLDMuMzcxLS4wMjUsMi40NDgsMi40NDgsMCwwLDAsLjc4My0xLjc3OCwxLjk2MSwxLjk2MSwwLDAsMC0uMjc5LTEuMDIzYy0uMTE2LS4xNjYtLjUyOS0uNjI3LS41MjktLjYyN2wtLjU2Mi0uNjFhLjgwNS44MDUsMCwwLDEtLjIwNS0uNTA4YzAtLjI3MS4xNTQtLjQwNi40Ni0uNDA2aDMuMDY1cS42NjMsMCwuOTE5LS44MTNWMzEuOTc2aC44NzljLjMsMCwuNTcxLjI4MS44MDcuNDMyYTYuNjU4LDYuNjU4LDAsMCwxLC42NjQuNDgycS4zMDYuMjU1LjYzOS40ODNhMi4wNiwyLjA2LDAsMCwwLC45ODQuMjI5LDEuNzY0LDEuNzY0LDAsMCwwLDEuNjcyLS43NjIsMi43NzgsMi43NzgsMCwwLDAsLjUzNi0xLjYyNkEyLjYsMi42LDAsMCwwLDMyLjk1NSwyOS42NjVaIi8+PC9zdmc+" vertex="1" parent="1">
          <mxGeometry x="410" y="360" width="100" height="100" as="geometry" />
        </mxCell>
        <mxCell id="lrLpBOUYX-XyNPeP_q0j-8" value="" style="shape=image;verticalLabelPosition=bottom;verticalAlign=top;imageAspect=0;aspect=fixed;image=data:image/svg+xml,PHN2ZyB4bWxucz0iaHR0cDovL3d3dy53My5vcmcvMjAwMC9zdmciIGlkPSJhdXRob3JpemF0aW9uLW1hbmFnZW1lbnQiIHZpZXdCb3g9IjYuOTk5ODk4OTEwNTIyNDYxIDMuOTk5ODU2OTQ4ODUyNTM5IDQyLjAwMDYyNTYxMDM1MTU2IDQ4LjAwMDE0NDk1ODQ5NjA5NCIgd2lkdGg9IjQyLjAwMDYyNTYxMDM1MTU2IiBoZWlnaHQ9IjQ4LjAwMDE0NDk1ODQ5NjA5NCI+PGRlZnM+PHN0eWxlPi5jbHMtMXtmaWxsOiMwNTNiNzA7fS5jbHMtMntmaWxsOiMwYTZlZDE7fTwvc3R5bGU+PC9kZWZzPjx0aXRsZT5hdXRob3JpemF0aW9uLW1hbmFnZW1lbnQ8L3RpdGxlPjxwYXRoIGNsYXNzPSJjbHMtMSIgZD0iTTQ4LjY1OCwxNC4wMmEyLjQsMi40LDAsMCwwLS45MDgtLjg3OWguMDFWOS42MjVhNC45ODksNC45ODksMCwwLDAtLjQ4OS0yLjE4N0E1LjYsNS42LDAsMCwwLDQ1LjkyNCw1LjY2YTYuNzI4LDYuNzI4LDAsMCwwLTEuOTkyLTEuMjExQTYuNTI0LDYuNTI0LDAsMCwwLDQxLjUxLDRhNi42NzEsNi42NzEsMCwwLDAtMi40NDIuNDQ5QTYuMzY2LDYuMzY2LDAsMCwwLDM3LjA3Niw1LjY2YTUuNzI3LDUuNzI3LDAsMCwwLTEuMzI4LDEuNzc4LDQuOTc0LDQuOTc0LDAsMCwwLS40ODgsMi4xODdsLS4wMzksMy41MTEtLjAxLjAwNWEyLjQ4MiwyLjQ4MiwwLDAsMC0uODc5Ljg3OUEyLjQ1MywyLjQ1MywwLDAsMCwzNCwxNS4yODlWMjEuNUEyLjQ2OSwyLjQ2OSwwLDAsMCwzNi41LDI0aDEwYTIuNDQzLDIuNDQzLDAsMCwwLDEuNzU4LS43MjNBMi4zODYsMi4zODYsMCwwLDAsNDksMjEuNVYxNS4yODlBMi4zNDIsMi4zNDIsMCwwLDAsNDguNjU4LDE0LjAyWk0zNy4wMSw5LjYwNWE0LjAxOCw0LjAxOCwwLDAsMSwxLjUtMy4xOTMsNC4xNTQsNC4xNTQsMCwwLDEsMy0uOTEyLDQuMTc2LDQuMTc2LDAsMCwxLDMsMS4xMTEsMy42NDMsMy42NDMsMCwwLDEsMS41LDIuOTk0VjEyLjc1SDM2Ljk3MVpNNDIuNSwxNy44MzR2Mi45MzFhLjgzMi44MzIsMCwwLDEtMS42NjMsMFYxNy44MzRhMS41MzQsMS41MzQsMCwwLDEtLjY1Ni0xLjI2OSwxLjQ4OCwxLjQ4OCwwLDEsMSwyLjk3NSwwQTEuNTM2LDEuNTM2LDAsMCwxLDQyLjUsMTcuODM0WiIvPjxwYXRoIGNsYXNzPSJjbHMtMiIgZD0iTTMzLjMsMzkuNTJBOC45OCw4Ljk4LDAsMCwwLDI4LjQ4LDM0LjcsOC44MDksOC44MDksMCwwLDAsMjUsMzRIMTZhOC43MzQsOC43MzQsMCwwLDAtMy41MTYuNyw5LjE0LDkuMTQsMCwwLDAtMi44NDcsMS45MzRBOS4wMTcsOS4wMTcsMCwwLDAsNy43LDM5LjUyLDguNzkxLDguNzkxLDAsMCwwLDcsNDN2OUgzNFY0M0E4LjgwOSw4LjgwOSwwLDAsMCwzMy4zLDM5LjUyWk0zMSw0OUgxMFY0M2E1Ljc4MSw1Ljc4MSwwLDAsMSwuNDY0LTIuMzA3LDYsNiwwLDAsMSwxLjI5NC0xLjkzNSw2LjEyMiw2LjEyMiwwLDAsMSwxLjkyMS0xLjNBNS43MTYsNS43MTYsMCwwLDEsMTYsMzdoOWE1Ljc4Myw1Ljc4MywwLDAsMSwyLjMuNDYzLDUuOTc5LDUuOTc5LDAsMCwxLDMuMjMyLDMuMjI5QTUuOCw1LjgsMCwwLDEsMzEsNDNaIi8+PHBhdGggY2xhc3M9ImNscy0yIiBkPSJNMjYuODYzLDMxLjM2M0E5LjE0LDkuMTQsMCwwLDAsMjguOCwyOC41MTZhOS4wNTQsOS4wNTQsMCwwLDAsMC03QTguOTgsOC45OCwwLDAsMCwyMy45OCwxNi43YTkuMDU0LDkuMDU0LDAsMCwwLTcsMCw5LjE0LDkuMTQsMCwwLDAtMi44NDcsMS45MzRBOS4wMTcsOS4wMTcsMCwwLDAsMTIuMiwyMS41MmE5LjA1NCw5LjA1NCwwLDAsMCwwLDdBOS4xNzQsOS4xNzQsMCwwLDAsMTYuOTg0LDMzLjNhOS4wNTQsOS4wNTQsMCwwLDAsNywwQTkuMDE3LDkuMDE3LDAsMCwwLDI2Ljg2MywzMS4zNjNaTTIwLjUsMzFhNS43LDUuNywwLDAsMS0yLjMyMi0uNDU1LDYuMTY2LDYuMTY2LDAsMCwxLTMuMjI0LTMuMjI3QTUuNjg0LDUuNjg0LDAsMCwxLDE0LjUsMjVhNS43ODEsNS43ODEsMCwwLDEsLjQ2NC0yLjMwNyw2LDYsMCwwLDEsMS4yOTQtMS45MzUsNi4xMjIsNi4xMjIsMCwwLDEsMS45MjEtMS4zQTUuNzE2LDUuNzE2LDAsMCwxLDIwLjUsMTlhNS43ODMsNS43ODMsMCwwLDEsMi4zLjQ2Myw1Ljk3OSw1Ljk3OSwwLDAsMSwzLjIzMiwzLjIyOUE1LjgsNS44LDAsMCwxLDI2LjUsMjVhNS43MTYsNS43MTYsMCwwLDEtLjQ1NCwyLjMxOSw2LjEyNyw2LjEyNywwLDAsMS0xLjMsMS45MjMsNi4wMDksNi4wMDksMCwwLDEtMS45MzcsMS4yOTVBNS43ODEsNS43ODEsMCwwLDEsMjAuNSwzMVoiLz48L3N2Zz4=" vertex="1" parent="1">
          <mxGeometry x="120" y="240" width="80" height="91.43" as="geometry" />
        </mxCell>
        <mxCell id="lrLpBOUYX-XyNPeP_q0j-9" value="" style="shape=image;verticalLabelPosition=bottom;verticalAlign=top;imageAspect=0;aspect=fixed;image=data:image/svg+xml,PHN2ZyB4bWxucz0iaHR0cDovL3d3dy53My5vcmcvMjAwMC9zdmciIGlkPSJzY3AtbGF1bmNocGFkIiB2aWV3Qm94PSIzLjk5ODUxOTQyMDYyMzc3OTMgNi45OTc3Nzc0NjIwMDU2MTUgNDguMDAzNzA0MDcxMDQ0OTIgNDIuMDAyODE5MDYxMjc5MyIgd2lkdGg9IjQ4LjAwMzcwNDA3MTA0NDkyIiBoZWlnaHQ9IjQyLjAwMjgxOTA2MTI3OTMiPjxkZWZzPjxzdHlsZT4uY2xzLTF7ZmlsbDojMDAzYjc0O30uY2xzLTJ7ZmlsbDojMDA2ZGQ3O308L3N0eWxlPjwvZGVmcz48cGF0aCBjbGFzcz0iY2xzLTEiIGQ9Ik00OSw3YTIuODg5LDIuODg5LDAsMCwxLDMsM1Y0MGEyLjk1OSwyLjk1OSwwLDAsMS0uODQ0LDIuMTA5QTIuODM3LDIuODM3LDAsMCwxLDQ5LDQzSDdhMi44NzEsMi44NzEsMCwwLDEtMi4xMDktLjg5MUEyLjg3NiwyLjg3NiwwLDAsMSw0LDQwVjEwYTIuODM0LDIuODM0LDAsMCwxLC44OTEtMi4xNTZBMi45NTQsMi45NTQsMCwwLDEsNyw3Wm0wLDNIN1Y0MEg0OVpNMzguNSw0NkExLjMyNywxLjMyNywwLDAsMSw0MCw0Ny41YTEuNTA5LDEuNTA5LDAsMCwxLS40MjIsMS4wMzFBMS4zODEsMS4zODEsMCwwLDEsMzguNSw0OWgtMjFBMS42MTQsMS42MTQsMCwwLDEsMTYsNDcuNWExLjM4MSwxLjM4MSwwLDAsMSwuNDY5LTEuMDc4QTEuNTA1LDEuNTA1LDAsMCwxLDE3LjUsNDZaIi8+PHJlY3QgY2xhc3M9ImNscy0yIiB4PSIxMCIgeT0iMTMiIHdpZHRoPSIxNi41MTUiIGhlaWdodD0iMTUiIHJ4PSIxLjI1Ii8+PHJlY3QgY2xhc3M9ImNscy0yIiB4PSIyOS41IiB5PSIxMyIgd2lkdGg9IjE2LjUiIGhlaWdodD0iNiIgcng9IjEuMjUiLz48cmVjdCBjbGFzcz0iY2xzLTIiIHg9IjEwIiB5PSIzMSIgd2lkdGg9IjYuNzMiIGhlaWdodD0iNiIgcng9IjAuNSIvPjxyZWN0IGNsYXNzPSJjbHMtMiIgeD0iMTkuNzY1IiB5PSIzMSIgd2lkdGg9IjYuNzM1IiBoZWlnaHQ9IjYiIHJ4PSIwLjUiLz48cmVjdCBjbGFzcz0iY2xzLTIiIHg9IjI5LjUiIHk9IjMxIiB3aWR0aD0iNi43MzUiIGhlaWdodD0iNiIgcng9IjAuNSIvPjxyZWN0IGNsYXNzPSJjbHMtMiIgeD0iMzkuMjY1IiB5PSIzMSIgd2lkdGg9IjYuNzM1IiBoZWlnaHQ9IjYiIHJ4PSIwLjUiLz48cmVjdCBjbGFzcz0iY2xzLTIiIHg9IjI5LjUiIHk9IjIyIiB3aWR0aD0iNi43MzUiIGhlaWdodD0iNiIgcng9IjAuNSIvPjxyZWN0IGNsYXNzPSJjbHMtMiIgeD0iMzkuMjY1IiB5PSIyMiIgd2lkdGg9IjYuNzM1IiBoZWlnaHQ9IjYiIHJ4PSIwLjUiLz48L3N2Zz4=" vertex="1" parent="1">
          <mxGeometry x="120" y="430" width="68.57" height="60" as="geometry" />
        </mxCell>
        <mxCell id="lrLpBOUYX-XyNPeP_q0j-10" value="" style="endArrow=classic;html=1;rounded=0;" edge="1" parent="1">
          <mxGeometry width="50" height="50" relative="1" as="geometry">
            <mxPoint x="150" y="340" as="sourcePoint" />
            <mxPoint x="150" y="410" as="targetPoint" />
          </mxGeometry>
        </mxCell>
      </root>
    </mxGraphModel>
  </diagram>
</mxfile>
